<svg width="108" height="99" viewBox="0 0 108 99" fill="none" xmlns="http://www.w3.org/2000/svg">
<path d="M16.9119 2H69.1037C77.3052 2 84.0156 8.74297 84.0156 16.9844V47.7024C84.0156 55.9438 77.3052 62.6868 69.1037 62.6868H39.6526L19.1487 80.668V62.6868H12.4384C6.47358 62.6868 2 58.1914 2 52.5723V16.9844C2 8.74297 8.71037 2 16.9119 2Z" stroke="white" stroke-width="3" stroke-linecap="round" stroke-linejoin="round"/>
<path d="M35.4757 70.3715C35.4757 74.5599 38.8057 77.9868 42.8756 78.3676L68.4053 79.1291L88.755 97.4059V79.1291H95.415C100.965 79.1291 105.775 74.5599 105.775 68.4676V32.2948C105.775 23.9179 99.1149 17.0641 90.975 17.0641H84.2457" stroke="white" stroke-width="3" stroke-linecap="round" stroke-linejoin="round"/>
<path d="M26.6144 28.4442H31.2766C33.2163 28.4442 34.7888 30.0167 34.7888 31.9564V31.9564C34.7888 33.8962 33.2163 35.4686 31.2766 35.4686H26.6144V41.1967C26.6144 43.2819 24.924 44.9723 22.8388 44.9723V44.9723C20.7536 44.9723 19.0632 43.2819 19.0632 41.1967V35.4686H14.3769C12.4372 35.4686 10.8647 33.8962 10.8647 31.9564V31.9564C10.8647 30.0167 12.4372 28.4442 14.3769 28.4442H19.0632V22.9835C19.0632 20.8983 20.7536 19.2079 22.8388 19.2079V19.2079C24.924 19.2079 26.6144 20.8983 26.6144 22.9835V28.4442Z" fill="white"/>
<circle cx="62.1353" cy="21.8393" r="3.26785" fill="white"/>
<circle cx="61.6992" cy="43.1794" r="3.26785" fill="white"/>
<circle cx="70.6316" cy="32.95" r="3.26785" fill="white"/>
<circle cx="53.6389" cy="32.95" r="3.26785" fill="white"/>
</svg>
