<svg width="69" height="69" viewBox="0 0 69 69" fill="none" xmlns="http://www.w3.org/2000/svg">
<g clip-path="url(#clip0_32_260)">
<path d="M14.5646 40.3815C16.6079 44.9699 20.1893 48.7179 24.6509 50.9857V52.8512C24.6509 52.8512 10.8467 56.6664 6.35357 58.2699C2.90706 59.4998 0.799652 62.9675 0.799652 66.6268C0.799652 67.9374 1.8623 69 3.17283 69C4.48337 69 5.54601 67.9374 5.54601 66.6268C5.54601 64.8837 6.5845 63.3211 8.19171 62.646L9.69926 62.0129V66.3413C9.69926 67.6518 10.7619 68.7145 12.0724 68.7145C13.383 68.7145 14.4456 67.6518 14.4456 66.3413V60.2948L18.8944 59.1827L33.4385 66.4547C33.7726 66.6217 34.1362 66.7051 34.4998 66.7051C34.8633 66.7051 35.2269 66.6217 35.561 66.4547L50.1051 59.1827L54.5539 60.2948V66.3411C54.5539 67.6516 55.6165 68.7142 56.9271 68.7142C58.2376 68.7142 59.3003 67.6516 59.3003 66.3411V62.0126L60.8076 62.6457C62.4148 63.3209 63.4535 64.8835 63.4535 66.6266C63.4535 67.9371 64.5161 68.9998 65.8267 68.9998C67.1372 68.9998 68.1999 67.9371 68.1999 66.6266C68.1999 62.9673 66.0922 59.4996 62.6457 58.2697C58.1526 56.6662 44.3486 52.851 44.3486 52.851V50.9854C48.8102 48.7177 52.3919 44.9696 54.4349 40.3813C59.4204 40.3813 63.476 34.7781 63.476 29.9581C63.476 26.5613 61.7773 24.1386 58.4695 23.1589V12.8633C58.4695 11.5527 57.4068 10.4901 56.0963 10.4901H53.7498C50.2754 4.24106 43.6105 0 35.9673 0H33.0326C25.3894 0 18.7245 4.24106 15.2497 10.4899H12.9032C11.5927 10.4899 10.53 11.5525 10.53 12.863V23.1589C7.22223 24.1384 5.52348 26.5611 5.52348 29.9581C5.52325 34.7783 9.57891 40.3815 14.5646 40.3815ZM15.2764 19.7456V15.2365H53.7236V19.7456H15.2764ZM56.0029 35.1816C56.2041 33.9935 56.3105 32.7736 56.3105 31.5291V27.5556C58.7287 27.9896 58.7301 29.377 58.7301 29.9583C58.7301 31.8355 57.5146 34.2052 56.0029 35.1816ZM33.0326 4.7466H35.9673C40.8326 4.7466 45.1824 6.98782 48.0447 10.4899H20.9553C23.8175 6.98759 28.1673 4.7466 33.0326 4.7466ZM10.2698 29.9583C10.2698 29.377 10.2712 27.9896 12.6895 27.5556V31.5291C12.6895 32.7736 12.7959 33.9935 12.9971 35.1816C11.4854 34.2052 10.2698 31.8355 10.2698 29.9583ZM17.4361 31.5291V24.4922H51.5639V31.5291C51.5639 40.9381 43.9091 48.5927 34.5 48.5927C25.0909 48.5927 17.4361 40.9381 17.4361 31.5291ZM34.5 61.6786L25.9702 57.4138L27.5998 57.0063C28.6561 56.7424 29.3972 55.7931 29.3972 54.704V52.7351C31.0349 53.1291 32.7432 53.3393 34.4998 53.3393C36.2563 53.3393 37.9649 53.1291 39.6023 52.7351V54.704C39.6023 55.7931 40.3434 56.7424 41.3998 57.0063L43.0293 57.4138L34.5 61.6786Z" fill="white"/>
</g>
<defs>
<clipPath id="clip0_32_260">
<rect width="69" height="69" fill="white"/>
</clipPath>
</defs>
</svg>
